<svg width="20" height="20" viewBox="0 0 20 20" fill="none" xmlns="http://www.w3.org/2000/svg">
    <g clip-path="url(#clip0_993_3928)">
        <path d="M15.3746 10.8647C14.8351 8.24983 17.4125 6.71622 17.4125 6.71622C17.4125 6.71622 16.4083 5.31718 14.7206 4.95727C13.0338 4.59656 12.1896 5.04723 11.347 5.38523C10.5036 5.72407 10.0827 5.72407 10.0827 5.72407C8.86557 5.72407 7.97583 4.48308 5.65688 5.04805C4.05929 5.4363 2.37749 7.21228 2.07362 9.33194C1.76976 11.4524 2.42548 14.1581 3.68975 16.255C4.95402 18.3536 6.2419 19.1423 7.15599 19.165C8.07011 19.1868 8.98256 18.5344 10.0827 18.3755C11.1837 18.2182 11.8613 18.7597 12.9412 19.0523C14.0169 19.3441 14.394 19.0734 15.6331 18.0586C16.8754 17.0437 18 14.133 18 14.133C18 14.133 15.9142 13.4812 15.3746 10.8647Z" fill="black"/>
        <path d="M12.9852 3.26542C14.1805 2.09255 13.7756 0.276855 13.7756 0.276855C13.7756 0.276855 12.0972 0.560564 10.9726 1.68724C9.84893 2.81475 10.0349 4.59558 10.0349 4.59558C10.0349 4.59558 11.79 4.43753 12.9852 3.26542Z" fill="black"/>
    </g>
    <defs>
        <clipPath id="clip0_993_3928">
            <rect width="20" height="18.8885" fill="white" transform="translate(0 0.276855)"/>
        </clipPath>
    </defs>
</svg>
