<svg width="17" height="17" viewBox="0 0 17 17" xmlns="http://www.w3.org/2000/svg">
    <g clip-path="url(#clip0_858_7073)">
        <path d="M2.76562 8.49951H4.67814V13.812H2.76562V8.49951Z" />
        <path d="M5.95312 8.49951H7.86564V13.812H5.95312V8.49951Z" />
        <path d="M9.14062 8.49951H11.0531V13.812H9.14062V8.49951Z" />
        <path d="M12.3281 8.49951H14.2406V13.812H12.3281V8.49951Z" />
        <path
                d="M15.1952 14.52H1.80784C1.28052 14.52 0.851562 14.9966 0.851562 15.5825V16.9992H16.1512V15.5825C16.1514 14.9966 15.7224 14.52 15.1951 14.52H15.1952Z"
        />
        <path d="M16.1512 5.66572V3.89551H0.851562V5.66572L0.851678 5.66623H16.1511L16.1512 5.66572Z" />
        <path
                d="M8.62115 0.023894C8.54461 -0.00796468 8.46183 -0.00796468 8.38841 0.023894L1.11328 3.18717H15.8974L8.62115 0.023894Z"
        />
        <path
                d="M15.5132 7.43704V6.37451H1.48828V7.43704C1.48828 7.63281 1.63084 7.79122 1.80705 7.79122H15.1944C15.3706 7.79122 15.5132 7.63283 15.5132 7.43704Z"
        />
    </g>
    <defs>
        <clipPath id="clip0_858_7073">
            <rect width="17" height="17" fill="white" />
        </clipPath>
    </defs>
</svg>
