<svg width="17" height="17" viewBox="0 0 17 17" xmlns="http://www.w3.org/2000/svg">
    <g clip-path="url(#clip0_802_9428)">
        <path
                d="M6.95392 14.9194C6.9195 15.0617 6.90234 15.1861 6.90234 15.3462C6.90234 16.2531 7.62457 16.9999 8.50149 16.9999C9.37841 16.9999 10.1006 16.2531 10.1006 15.3462C10.1006 15.204 10.0835 15.0617 10.0491 14.9194H6.95392Z"
        />
        <path
                d="M14.9999 13.0879C14.9828 12.9456 14.9312 12.8212 14.8452 12.7144C14.828 12.6967 13.4524 11.1495 13.4524 7.05959C13.4524 3.87654 11.3889 2.54285 9.6865 2.13386V1.20914C9.6865 0.551223 9.15346 0 8.51724 0C7.88091 0 7.33071 0.551223 7.33071 1.20914V2.15161C5.62829 2.56057 3.56483 3.8765 3.56483 7.07734C3.56483 11.1673 2.18914 12.7144 2.17201 12.7144C2.06885 12.821 2.01727 12.9456 2 13.0879V14.2082H15L14.9999 13.0879Z"
        />
    </g>
    <defs>
        <clipPath id="clip0_802_9428">
            <rect width="17" height="17" fill="white" />
        </clipPath>
    </defs>
</svg>
