<svg width="23" height="23" viewBox="0 0 23 23" fill="none" xmlns="http://www.w3.org/2000/svg">
    <g clip-path="url(#clip0_1599_4941)">
        <path
            d="M10.625 17.4833H8.20219L11.5 13.1648L14.7978 17.4833H12.375H12.275V17.5833V22.4H11.5H10.725V17.5833V17.4833H10.625Z"
            fill="currentColor" stroke="white" stroke-width="0.2" />
        <path
            d="M14.3739 0.104033C15.0361 0.103807 15.688 0.27118 16.2681 0.590568C16.8483 0.909956 17.3381 1.37097 17.6921 1.93067C18.0461 2.49037 18.2527 3.13056 18.2927 3.7916C18.3326 4.45265 18.2046 5.11305 17.9206 5.71131L17.8528 5.85425L18.011 5.8542L21.8479 5.85305C22.1263 5.85306 22.3933 5.96366 22.5902 6.16053C22.7871 6.35741 22.8977 6.62443 22.8977 6.90285V11.5021C22.8977 11.7805 22.7871 12.0475 22.5902 12.2444C22.3933 12.4413 22.1263 12.5519 21.8479 12.5519H20.6981H20.5981V12.6519V21.8503C20.5981 22.1287 20.4875 22.3957 20.2906 22.5926C20.0937 22.7895 19.8267 22.9001 19.5483 22.9001H3.45097C3.17254 22.9001 2.90552 22.7895 2.70865 22.5926C2.51177 22.3957 2.40117 22.1287 2.40117 21.8503V12.6519V12.5519H2.30117H1.15136C0.87294 12.5519 0.60592 12.4413 0.409043 12.2444C0.212167 12.0475 0.101562 11.7805 0.101562 11.5021V6.90285C0.101562 6.62443 0.212167 6.35741 0.409043 6.16053C0.605913 5.96366 0.872921 5.85306 1.15133 5.85305L4.98823 5.8542L5.14664 5.85425L5.07855 5.71122C4.67911 4.87217 4.59039 3.9186 4.82818 3.02026C5.06596 2.12192 5.61482 1.33712 6.37704 0.805549C7.13927 0.273983 8.0654 0.0301522 8.99056 0.117465C9.91572 0.204778 10.7799 0.617568 11.4292 1.28235L11.5009 1.35567L11.5724 1.28228C11.9368 0.908427 12.3725 0.611515 12.8537 0.409127C13.3349 0.206739 13.8519 0.102992 14.3739 0.104033ZM18.4985 12.6519V12.5519H18.3985H4.60077H4.50077V12.6519V20.7005V20.8005H4.60077H18.3985H18.4985V20.7005V12.6519ZM20.7981 8.05266V7.95266H20.6981H2.30117H2.20117V8.05266V10.3523V10.4523H2.30117H20.6981H20.7981V10.3523V8.05266ZM8.62994 2.20376L8.62504 2.20364C8.15643 2.20387 7.70588 2.38438 7.36673 2.70776C7.02759 3.03113 6.82586 3.47259 6.80334 3.94066C6.78082 4.40872 6.93924 4.86751 7.24577 5.22195C7.5523 5.57639 7.98345 5.79932 8.44986 5.84454L8.45466 5.84488L8.62023 5.85293L8.62508 5.85305H10.3498H10.4498V5.75305V4.02835C10.4498 3.57474 10.2808 3.13741 9.97583 2.80163C9.67086 2.46585 9.25176 2.2557 8.80026 2.21215L8.79551 2.21181L8.62994 2.20376ZM14.379 2.20376H14.3693L14.2037 2.21181L14.199 2.21215C13.7774 2.25254 13.3829 2.43838 13.0833 2.73779C12.7836 3.03721 12.5975 3.43154 12.5568 3.85316L12.5564 3.85861L12.5495 4.02418L12.5494 4.02835V5.75305V5.85305H12.6494H14.3741L14.379 5.85293L14.5446 5.84488L14.5494 5.84454C15.0007 5.80078 15.4196 5.59053 15.7244 5.25478C16.0291 4.91902 16.198 4.4818 16.198 4.02835C16.198 3.57489 16.0291 3.13767 15.7244 2.80192C15.4196 2.46616 15.0007 2.25591 14.5494 2.21216L14.5446 2.21181L14.379 2.20376Z"
            fill="currentColor" stroke="white" stroke-width="0.2" />
    </g>
    <defs>
        <clipPath id="clip0_1599_4941">
            <rect width="23" height="23" fill="white" />
        </clipPath>
    </defs>
</svg>