<svg width="8" height="8" viewBox="0 0 8 8" xmlns="http://www.w3.org/2000/svg">
    <g clip-path="url(#clip0_802_10289)">
        <path d="M0.415279 8.00002C0.309899 8.00002 0.204519 7.95994 0.124455 7.87927C-0.0362767 7.71854 -0.0362767 7.45795 0.124455 7.29722L7.30112 0.120549C7.46185 -0.0401829 7.72244 -0.0401829 7.88317 0.120549C8.0439 0.281281 8.0439 0.541867 7.88317 0.702699L0.706605 7.87927C0.625938 7.95944 0.520558 8.00002 0.415279 8.00002Z" />
        <path d="M7.59245 8.00002C7.48707 8.00002 7.38179 7.95994 7.30162 7.87927L0.124455 0.702699C-0.0362767 0.541867 -0.0362767 0.281281 0.124455 0.120549C0.285187 -0.0401829 0.545773 -0.0401829 0.706605 0.120549L7.88317 7.29722C8.0439 7.45795 8.0439 7.71854 7.88317 7.87927C7.8025 7.95944 7.69722 8.00002 7.59245 8.00002Z" />
    </g>
    <defs>
        <clipPath id="clip0_802_10289">
            <rect width="8" height="8" fill="white"/>
        </clipPath>
    </defs>
</svg>
