<svg width="22" height="22" viewBox="0 0 22 22" xmlns="http://www.w3.org/2000/svg">
    <g clip-path="url(#clip0_883_11440)">
        <path d="M18.8518 3.21282C18.7143 3.07655 18.5278 3 18.3333 3C18.1389 3 17.9524 3.07655 17.8149 3.21282L15.4873 5.51992C14.0885 4.84254 12.5566 4.4785 11 4.45359C5.04095 4.45359 0.35276 10.2984 0.156227 10.547C0.0550074 10.6749 0 10.8328 0 10.9955C0 11.1581 0.0550074 11.316 0.156227 11.4439C1.57474 13.1432 3.26506 14.6 5.15975 15.7565L3.14822 17.7503C3.07818 17.8173 3.02231 17.8976 2.98388 17.9862C2.94545 18.0749 2.92522 18.1703 2.92437 18.2668C2.92352 18.3633 2.94208 18.459 2.97895 18.5484C3.01582 18.6377 3.07028 18.7189 3.13913 18.7871C3.20798 18.8554 3.28986 18.9093 3.37999 18.9459C3.47011 18.9824 3.56668 19.0008 3.66405 19C3.76142 18.9991 3.85765 18.9791 3.94711 18.941C4.03658 18.9029 4.1175 18.8475 4.18515 18.7781L18.8518 4.24062C18.9893 4.10431 19.0665 3.91946 19.0665 3.72672C19.0665 3.53398 18.9893 3.34913 18.8518 3.21282ZM7.33334 10.9955C7.33451 10.0319 7.72119 9.10817 8.40857 8.42684C9.09595 7.74552 10.0279 7.36224 11 7.36109C11.715 7.36611 12.4121 7.58278 13.002 7.98329L7.96108 12.9798C7.55701 12.3951 7.33841 11.7041 7.33334 10.9955Z" />
        <path d="M21.8416 10.547C20.7445 9.22933 19.4839 8.05414 18.0899 7.04932L14.6132 10.4954C14.6422 10.6607 14.6594 10.8278 14.6645 10.9955C14.6634 11.959 14.2767 12.8828 13.5893 13.5641C12.9019 14.2454 11.97 14.6287 10.9979 14.6299C10.8287 14.6248 10.6601 14.6078 10.4933 14.579L8 17.0504C8.96814 17.3643 9.97928 17.5285 10.9979 17.5374C16.9569 17.5374 21.6451 11.6926 21.8416 11.444C21.9429 11.316 21.9979 11.1581 21.9979 10.9955C21.9979 10.8329 21.9429 10.675 21.8416 10.547Z" />
    </g>
    <defs>
        <clipPath id="clip0_883_11440">
            <rect width="22" height="22" fill="white"/>
        </clipPath>
    </defs>
</svg>
