<svg width="22" height="22" viewBox="0 0 22 22" xmlns="http://www.w3.org/2000/svg">
    <path
        d="M5.44444 4.4V1.1C5.44444 0.808261 5.56151 0.528472 5.76988 0.322182C5.97826 0.115892 6.26087 0 6.55556 0L19.8889 0C20.1836 0 20.4662 0.115892 20.6746 0.322182C20.8829 0.528472 21 0.808261 21 1.1V16.5C21 16.7917 20.8829 17.0715 20.6746 17.2778C20.4662 17.4841 20.1836 17.6 19.8889 17.6H16.5556V20.9C16.5556 21.5072 16.0556 22 15.4367 22H2.11889C1.97236 22.0009 1.82711 21.973 1.69147 21.9182C1.55583 21.8633 1.43248 21.7824 1.32851 21.6802C1.22454 21.578 1.14199 21.4564 1.08562 21.3225C1.02924 21.1887 1.00014 21.045 1 20.9L1.00333 5.5C1.00333 4.8928 1.50333 4.4 2.12222 4.4H5.44444ZM7.66667 4.4L16.5556 4.4V15.4H18.7778V2.2L7.66667 2.2V4.4ZM5.44444 9.89999V12.1H12.1111V9.89999H5.44444ZM5.44444 14.3V16.5H12.1111V14.3H5.44444Z" />
</svg>