<svg width="23" height="23" viewBox="0 0 23 23" fill="none" xmlns="http://www.w3.org/2000/svg">
    <path
        d="M11.5 0C17.8514 0 23 5.14855 23 11.5C23 17.8514 17.8514 23 11.5 23C5.14855 23 0 17.8514 0 11.5C0 5.14855 5.14855 0 11.5 0ZM11.5 2.3C9.06001 2.3 6.71995 3.26928 4.99462 4.99462C3.26928 6.71995 2.3 9.06001 2.3 11.5C2.3 13.94 3.26928 16.28 4.99462 18.0054C6.71995 19.7307 9.06001 20.7 11.5 20.7C13.94 20.7 16.28 19.7307 18.0054 18.0054C19.7307 16.28 20.7 13.94 20.7 11.5C20.7 9.06001 19.7307 6.71995 18.0054 4.99462C16.28 3.26928 13.94 2.3 11.5 2.3Z"
        fill="currentColor" />
    <path
        d="M12.882 14.7855V14.7857C12.882 16.069 13.9224 17.1091 15.2054 17.1091C16.4886 17.1091 17.529 16.0691 17.529 14.7857C17.529 13.5025 16.4887 12.4621 15.2054 12.4621L15.2051 12.4621C13.9226 12.4637 12.8836 13.503 12.882 14.7855ZM16.1035 14.7859C16.1035 15.2816 15.7015 15.6836 15.2054 15.6836C14.7095 15.6836 14.3075 15.2816 14.3075 14.7857C14.3075 14.29 14.7094 13.8879 15.2053 13.8876C15.7012 13.8884 16.1027 14.2899 16.1035 14.7859Z"
        fill="currentColor" stroke="currentColor" stroke-width="0.4" />
    <path
        d="M5.33906 8.12339V8.12363C5.33906 9.40694 6.37942 10.447 7.66241 10.447C8.94566 10.447 9.98604 9.40696 9.98604 8.12363C9.98604 6.84034 8.9457 5.8 7.66241 5.8L7.66216 5.8C6.3796 5.80157 5.34063 6.8409 5.33906 8.12339ZM8.56056 8.12375C8.5605 8.61951 8.15853 9.0215 7.66241 9.0215C7.16656 9.0215 6.76454 8.61948 6.76454 8.12363C6.76454 7.62788 7.16645 7.22583 7.66229 7.22548C8.15822 7.22627 8.55977 7.62781 8.56056 8.12375Z"
        fill="currentColor" stroke="currentColor" stroke-width="0.4" />
    <path d="M15 6L8 17" stroke="currentColor" stroke-width="2" stroke-linecap="round" />
</svg>