<svg width="22" height="22" viewBox="0 0 22 22" xmlns="http://www.w3.org/2000/svg">
    <path d="M11 0C17.0753 0 22 4.9247 22 11C22 17.0753 17.0753 22 11 22C4.9247 22 0 17.0753 0 11C0 4.9247 4.9247 0 11 0ZM11 2.2C8.66609 2.2 6.42778 3.12714 4.77746 4.77746C3.12714 6.42778 2.2 8.66609 2.2 11C2.2 13.3339 3.12714 15.5722 4.77746 17.2225C6.42778 18.8729 8.66609 19.8 11 19.8C13.3339 19.8 15.5722 18.8729 17.2225 17.2225C18.8729 15.5722 19.8 13.3339 19.8 11C19.8 8.66609 18.8729 6.42778 17.2225 4.77746C15.5722 3.12714 13.3339 2.2 11 2.2ZM11 5.5C12.1578 5.50044 13.286 5.86627 14.2238 6.54537C15.1616 7.22448 15.8611 8.18221 16.2228 9.28213C16.5844 10.382 16.5897 11.568 16.2379 12.6711C15.8861 13.7742 15.1951 14.7382 14.2634 15.4256C13.3318 16.1131 12.2069 16.489 11.0491 16.4998C9.89132 16.5105 8.75965 16.1557 7.81534 15.4857C6.87103 14.8157 6.16225 13.8648 5.78997 12.7684C5.41769 11.672 5.4009 10.4862 5.742 9.3797C5.99931 9.95468 6.4463 10.4238 7.00816 10.7087C7.57002 10.9935 8.21266 11.0767 8.82854 10.9444C9.44442 10.8121 9.99617 10.4722 10.3914 9.98177C10.7867 9.49129 11.0016 8.87993 11 8.25C11.0001 7.72031 10.8473 7.20186 10.5599 6.75694C10.2724 6.31203 9.86263 5.9596 9.3797 5.742C9.8923 5.5847 10.4357 5.5 11 5.5Z" />
</svg>
