<svg id="Layer_1" enable-background="new 0 0 512 512" height="512" viewBox="0 0 512 512" width="512"
    xmlns="http://www.w3.org/2000/svg">
    <path clip-rule="evenodd"
        d="m328.514 183.488c25.61 25.61 36.243 63.164 26.62 99.111-.2.745-.001 1.484.544 2.029l58.827 58.826c.758.758 1.95.827 2.791.162 26.827-21.242 49.384-47.685 66.161-77.817 3.552-6.378 3.552-13.217 0-19.596-56.717-101.849-173.972-153.95-288.333-126.654-1.601.382-2.161 2.365-.997 3.529l33.246 33.246c.545.545 1.284.744 2.029.544 35.95-9.626 73.595 1.011 99.158 26.573zm-66.447 7.53c-1.398-1.398-.244-3.795 1.721-3.574 15.939 1.791 30.235 9.014 40.995 19.774l.047-.046c10.741 10.741 17.95 25.055 19.731 41.047.219 1.964-2.178 3.116-3.575 1.719zm-65.242 29.493-116.834-116.835c-1.981-1.982-3.424-4.403-4.215-7.074l-.302-1.174-.268-1.588c-.457-3.779.394-7.642 2.414-10.869 5.598-8.94 18.277-10.756 26.054-2.978l328.336 328.335c6.54 6.54 6.54 17.144 0 23.684-6.54 6.539-17.144 6.539-23.683 0zm-9.383 43.278c-.221-1.965 2.177-3.118 3.574-1.72l58.917 58.917c1.398 1.398.244 3.795-1.721 3.574-31.879-3.582-57.189-28.892-60.77-60.771zm-92.737-95.402c.84-.666 2.032-.596 2.791.162l58.826 58.826c.546.545.744 1.284.544 2.029-2.269 8.483-3.48 17.399-3.48 26.598 0 67.609 64.279 116.515 129.212 99.133.745-.2 1.484-.001 2.029.544l33.246 33.246c1.164 1.164.603 3.147-.997 3.53-19.516 4.666-39.899 7.138-60.876 7.138-95.498 0-181.736-51.692-227.456-133.793-3.552-6.379-3.552-13.217 0-19.596 16.777-30.132 39.334-56.575 66.161-77.817z"
        fill-rule="evenodd" />
</svg>