<svg width="17" height="17" viewBox="0 0 17 17" xmlns="http://www.w3.org/2000/svg">
    <g clip-path="url(#clip0_858_7087)">
        <path
                d="M16.2749 2.29501H9.86403L8.24776 1.00891C8.12062 0.904215 7.96082 0.850098 7.79376 0.850098H3.19911C2.79951 0.850098 2.47266 1.17165 2.47266 1.57261V3.74003H4.5321C4.84882 3.74003 5.16027 3.84407 5.40888 4.03315L6.4701 4.82366H14.5241C15.2189 4.82366 15.8183 5.31294 15.9494 5.98712L17.0014 11.2187V3.01742C17.0014 2.61646 16.6781 2.29491 16.2749 2.29491L16.2749 2.29501Z"
        />
        <path
                d="M15.2347 6.12464C15.1694 5.78866 14.8678 5.54667 14.5228 5.54667H6.2269L4.96648 4.60742C4.84303 4.51347 4.68691 4.46289 4.53066 4.46289H0.727921C0.510013 4.46289 0.306601 4.55671 0.168522 4.71932C0.0305848 4.88547 -0.0276485 5.09868 0.0124025 5.31172L1.69772 14.7042C1.7595 15.0474 2.06096 15.3003 2.41337 15.3003H16.1936C16.4115 15.3003 16.6186 15.2028 16.7566 15.033C16.8945 14.8668 16.949 14.6464 16.9054 14.4334L15.2347 6.12464ZM10.5328 11.0403L8.71708 12.8463C8.68348 12.8797 8.6433 12.9062 8.59877 12.9245C8.55437 12.9427 8.50721 12.9523 8.45991 12.9523C8.41261 12.9523 8.36558 12.9427 8.32118 12.9244C8.27665 12.906 8.23647 12.8796 8.20287 12.8462L6.387 11.0401C6.24511 10.899 6.24511 10.6704 6.387 10.5293C6.52889 10.3882 6.75877 10.3882 6.90056 10.5293L8.09656 11.7189L8.09669 7.89479C8.09669 7.6951 8.25927 7.53352 8.45994 7.53352C8.66059 7.53352 8.82318 7.69508 8.82318 7.89479V11.7189L10.0192 10.5293C10.1611 10.3882 10.391 10.3882 10.5327 10.5293C10.6748 10.6703 10.6748 10.8989 10.5329 11.04L10.5328 11.0403Z"
        />
    </g>
    <defs>
        <clipPath id="clip0_858_7087">
            <rect width="17" height="17" fill="white" />
        </clipPath>
    </defs>
</svg>
