<svg width="23" height="23" viewBox="0 0 23 23" fill="none" xmlns="http://www.w3.org/2000/svg">
    <path
        d="M11.5 0C17.8514 0 23 5.14855 23 11.5C23 14.26 22.0271 16.7946 20.4056 18.7772L20.4447 18.8186L18.8186 20.4447L18.7772 20.4056C16.7252 22.0872 14.153 23.0042 11.5 23C5.14855 23 0 17.8514 0 11.5C0 5.14855 5.14855 0 11.5 0ZM2.3 11.5C2.29997 13.2215 2.78294 14.9084 3.69399 16.369C4.60504 17.8297 5.90762 19.0054 7.45364 19.7625C8.99966 20.5196 10.7271 20.8278 12.4396 20.652C14.152 20.4762 15.7808 19.8235 17.1407 18.768L14.4095 16.0356C14.2092 16.0786 14.0049 16.1002 13.8 16.1H12.65V18.4H10.35V16.1H7.475V13.8H13.8C13.9437 13.8003 14.0823 13.7467 14.1884 13.6499C14.2946 13.5531 14.3607 13.42 14.3737 13.2769C14.3867 13.1338 14.3456 12.9911 14.2586 12.8767C14.1716 12.7624 14.0449 12.6848 13.9035 12.6592L13.8 12.65H9.2C8.69533 12.65 8.19957 12.5171 7.76252 12.2648C7.32548 12.0124 6.96255 11.6495 6.71023 11.2125C6.4579 10.7754 6.32507 10.2796 6.32507 9.77498C6.32507 9.27031 6.45792 8.77454 6.71025 8.3375L4.23085 5.8581C2.97595 7.47072 2.2963 9.45664 2.3 11.5ZM11.5 2.3C9.3748 2.3 7.4175 3.02105 5.85925 4.232L8.5905 6.96325C8.79084 6.9206 8.99516 6.89939 9.2 6.9H10.35V4.6H12.65V6.9H15.525V9.19999H9.2C9.05631 9.19973 8.91773 9.25327 8.81155 9.35008C8.70536 9.44689 8.63927 9.57994 8.62629 9.72304C8.61331 9.86614 8.65437 10.0089 8.7414 10.1233C8.82843 10.2376 8.95511 10.3152 9.09649 10.3408L9.2 10.35H13.8C14.3047 10.35 14.8004 10.4829 15.2375 10.7352C15.6745 10.9875 16.0374 11.3505 16.2898 11.7875C16.5421 12.2246 16.6749 12.7203 16.6749 13.225C16.6749 13.7297 16.5421 14.2254 16.2897 14.6625L18.7691 17.1407C19.8247 15.7807 20.4774 14.1518 20.6532 12.4393C20.829 10.7267 20.5207 8.99918 19.7634 7.45312C19.0061 5.90706 17.8302 4.60449 16.3694 3.69353C14.9086 2.78257 13.2216 2.29976 11.5 2.3Z"
        fill="currentColor" />
</svg>