<svg width="17" height="17" viewBox="0 0 17 17" xmlns="http://www.w3.org/2000/svg" class="main-nav__prepend">
    <g clip-path="url(#clip0_802_9435)">
        <path
                d="M16.9465 7.55889C16.9193 7.31909 16.6403 7.14061 16.3988 7.14061C15.8855 7.15188 15.3902 6.95193 15.0288 6.58736C14.6675 6.2228 14.4717 5.7259 14.4877 5.21287C14.5036 4.69994 14.7297 4.21609 15.1131 3.87466C15.202 3.79402 15.2571 3.68254 15.2668 3.56286C15.2767 3.4432 15.2405 3.32425 15.1657 3.23021C14.7684 2.72796 14.316 2.27174 13.8171 1.87016C13.7226 1.79474 13.6031 1.75833 13.4826 1.76805C13.3622 1.7779 13.25 1.83328 13.1691 1.92282C12.9027 2.20318 12.5592 2.39814 12.182 2.48318C11.8047 2.56821 11.4107 2.53951 11.0499 2.40052C10.6923 2.24765 10.3905 1.98841 10.1855 1.65812C9.98034 1.32771 9.88198 0.942411 9.90358 0.554258C9.90999 0.433646 9.87036 0.315053 9.79265 0.222543C9.71506 0.130039 9.60509 0.0705059 9.48514 0.0560363C8.85008 -0.0168978 8.20885 -0.0186769 7.57342 0.0509367C7.45514 0.0641005 7.34611 0.121263 7.26804 0.211038C7.18986 0.300694 7.14833 0.41656 7.15166 0.535526C7.16542 0.920249 7.06114 1.30011 6.85293 1.624C6.64472 1.94788 6.34242 2.20047 5.98665 2.3479C5.62717 2.48144 5.23663 2.50741 4.86267 2.4225C4.48874 2.3377 4.14764 2.1457 3.88107 1.87022C3.80051 1.7821 3.6897 1.72779 3.57082 1.71794C3.45183 1.70822 3.33367 1.7438 3.23984 1.81744C2.73112 2.21674 2.27008 2.67311 1.86566 3.1776C1.79068 3.27189 1.75402 3.39107 1.76316 3.5112C1.77229 3.63122 1.82651 3.74353 1.91489 3.82537C2.20579 4.08592 2.40831 4.43044 2.49456 4.81125C2.58081 5.19206 2.5464 5.59017 2.39621 5.95057C2.23451 6.30184 1.97268 6.59761 1.64346 6.8009C1.31435 7.00417 0.932464 7.1058 0.545807 7.09311C0.425746 7.08552 0.307462 7.1249 0.216127 7.20293C0.124657 7.28109 0.0672375 7.39162 0.0559667 7.51127C-0.0186556 8.15299 -0.0186556 8.80109 0.0559667 9.44269C0.0780333 9.69091 0.367272 9.86096 0.610486 9.86096C0.985267 9.85788 1.35221 9.96746 1.66401 10.1755C1.9758 10.3834 2.2178 10.6801 2.35887 11.0272C2.50302 11.3842 2.53469 11.7766 2.44998 12.1521C2.36516 12.5275 2.16786 12.8682 1.88432 13.1287C1.79581 13.2092 1.74112 13.3204 1.73127 13.4397C1.72155 13.5588 1.75737 13.6774 1.83164 13.7714C2.22683 14.2743 2.67824 14.7307 3.177 15.1314C3.27096 15.2072 3.39031 15.2443 3.51072 15.2351C3.63114 15.2259 3.74349 15.1713 3.825 15.0822C4.0917 14.8014 4.43562 14.6058 4.81337 14.5202C5.19113 14.4345 5.58584 14.4627 5.94756 14.601C6.30621 14.7521 6.60908 15.0107 6.81469 15.3411C7.02029 15.6714 7.1184 16.0573 7.09562 16.4457C7.0891 16.5663 7.12872 16.6849 7.20643 16.7774C7.28414 16.8699 7.394 16.9293 7.51394 16.9439C7.83925 16.9808 8.16632 16.9995 8.49366 17C8.80566 17.0006 9.11745 16.983 9.42733 16.9472C9.54633 16.934 9.65583 16.8764 9.73402 16.7859C9.81222 16.6954 9.85337 16.5787 9.84922 16.4593C9.83475 16.0748 9.9382 15.6951 10.1459 15.3711C10.3535 15.0471 10.6553 14.7945 11.0108 14.6469C11.37 14.514 11.7604 14.489 12.1336 14.5751C12.5068 14.6612 12.8467 14.8546 13.1113 15.1314C13.1918 15.2195 13.3027 15.2738 13.4215 15.2837C13.5405 15.2934 13.6587 15.2578 13.7525 15.1842C14.2604 14.784 14.7214 14.3277 15.1267 13.824C15.2025 13.7301 15.2396 13.6106 15.2304 13.4904C15.2213 13.37 15.1666 13.2577 15.0775 13.1762C14.6926 12.837 14.464 12.3548 14.445 11.8423C14.4262 11.3298 14.6186 10.8321 14.9773 10.4655C15.3362 10.0989 15.8299 9.89564 16.3429 9.90335H16.4483H16.4482C16.5689 9.90988 16.6875 9.87027 16.78 9.79259C16.8726 9.71491 16.9321 9.60509 16.9466 9.48519C17.0178 8.84502 17.0178 8.19893 16.9466 7.55887L16.9465 7.55889ZM8.51235 11.3518C7.76042 11.3518 7.03923 11.0533 6.50748 10.5217C5.97574 9.99018 5.67713 9.26937 5.67713 8.5176C5.67713 7.76594 5.97574 7.04513 6.50748 6.51359C7.03923 5.98204 7.76042 5.68342 8.51235 5.68342C9.26429 5.68342 9.98536 5.98204 10.5171 6.51359C11.0488 7.04513 11.3476 7.76594 11.3476 8.5176C11.3466 9.26901 11.0477 9.98936 10.5162 10.5207C9.98466 11.0521 9.26404 11.351 8.51235 11.3518Z"
        />
    </g>
    <defs>
        <clipPath id="clip0_802_9435">
            <rect width="17" height="17" fill="white" />
        </clipPath>
    </defs>
</svg>
