<svg width="17" height="17" viewBox="0 0 17 17" xmlns="http://www.w3.org/2000/svg" class="main-nav__prepend">
    <g clip-path="url(#clip0_802_9460)">
        <path
                d="M13.6302 2.18433C12.1394 0.790717 10.163 0.00935206 8.10524 8.07925e-05C6.04749 -0.00904129 4.06375 0.754608 2.56003 2.13505C1.05642 3.51535 0.146451 5.40808 0.0161927 7.42594C-0.114062 9.44384 0.545244 11.4342 1.85929 12.9901C2.02515 13.1969 2.09734 13.4614 2.05882 13.722L1.84529 15.3998C1.80234 15.7331 1.8809 16.0705 2.067 16.3523C2.2531 16.6342 2.53482 16.8421 2.8621 16.9393C3.1894 17.0363 3.5411 17.0166 3.85493 16.8832L6.32158 15.8446C6.51169 15.7696 6.71941 15.7475 6.92158 15.7812C8.03651 15.9421 9.17343 15.8687 10.2573 15.5658C11.7843 15.138 13.1504 14.2798 14.1864 13.0975C15.2224 11.9152 15.8831 10.4605 16.0868 8.91327C16.2451 7.68086 16.1051 6.4291 15.6782 5.25984C15.2514 4.09058 14.5497 3.03679 13.6301 2.18422L13.6302 2.18433ZM8.07615 3.66781C8.35051 3.66781 8.61364 3.77482 8.80779 3.96557C9.00178 4.15618 9.11084 4.41474 9.11084 4.6843C9.11084 4.95401 9.00178 5.21255 8.80779 5.40317C8.61365 5.59378 8.3505 5.70093 8.07615 5.70093C7.8018 5.70093 7.53865 5.59378 7.34451 5.40317C7.15051 5.21256 7.04146 4.954 7.04146 4.6843C7.04146 4.41472 7.15051 4.15619 7.34451 3.96557C7.53864 3.77482 7.8018 3.66781 8.07615 3.66781ZM9.31772 12.6139H6.83458V12.6137C6.61273 12.6137 6.4078 12.4975 6.29694 12.3088C6.18609 12.1201 6.18609 11.8875 6.29694 11.6988C6.4078 11.5101 6.61274 11.3938 6.83458 11.3938H7.45536V7.73413H7.24848C7.02663 7.73413 6.8217 7.61786 6.71085 7.42915C6.59999 7.24045 6.59999 7.0079 6.71085 6.8192C6.8217 6.6305 7.02664 6.51423 7.24848 6.51423H8.07615C8.24076 6.51423 8.39874 6.57849 8.51513 6.69286C8.63153 6.80736 8.69693 6.96243 8.69693 7.12418V11.3938H9.31772C9.53956 11.3938 9.7445 11.5101 9.85535 11.6988C9.96621 11.8875 9.96621 12.1201 9.85535 12.3088C9.7445 12.4975 9.53956 12.6137 9.31772 12.6137V12.6139Z"
        />
    </g>
    <defs>
        <clipPath id="clip0_802_9460">
            <rect width="17" height="17" fill="white" />
        </clipPath>
    </defs>
</svg>
