<svg width="17" height="17" viewBox="0 0 17 17" xmlns="http://www.w3.org/2000/svg" class="main-nav__prepend">
    <g clip-path="url(#clip0_802_9440)">
        <path d="M3.13758e-05 9.26472V7.73528C3.13758e-05 7.4189 0.246147 7.17265 0.562658 7.17265H1.82843C2.00428 6.3112 2.33819 5.46738 2.84807 4.7115L1.95152 3.81495C1.74059 3.60402 1.74059 3.2348 1.95152 3.02387L3.02391 1.95149C3.23483 1.74056 3.60405 1.74056 3.81498 1.95149L4.71153 2.84804C5.46741 2.33828 6.31135 2.00423 7.17269 1.82839V0.562626C7.17269 0.246247 7.4188 0 7.73531 0H9.26475C9.58113 0 9.82738 0.246115 9.82738 0.562626V1.82839C10.6888 2.00425 11.5326 2.33816 12.2885 2.84804L13.1851 1.95149C13.396 1.74056 13.7652 1.74056 13.9762 1.95149L15.0485 3.02387C15.2595 3.2348 15.2595 3.60402 15.0485 3.81495L14.152 4.7115C14.6618 5.46738 14.9958 6.31132 15.1716 7.17265H16.4374C16.7538 7.17265 17 7.41877 17 7.73528V9.26472C17 9.5811 16.7539 9.82735 16.4374 9.82735H15.1716C14.9958 10.6888 14.6619 11.5326 14.152 12.2885L15.0485 13.1851C15.2595 13.396 15.2595 13.7652 15.0485 13.9761L13.9762 15.0485C13.7652 15.2594 13.396 15.2594 13.1851 15.0485L12.2885 14.152C11.5326 14.6617 10.6887 14.9958 9.82738 15.1716V16.4374C9.82738 16.7538 9.58126 17 9.26475 17H7.73531C7.41893 17 7.17269 16.7539 7.17269 16.4374V15.1716C6.75073 15.0837 6.34642 14.9607 5.95963 14.8024L7.98128 12.7807C9.24705 12.9389 10.5656 12.5171 11.55 11.5501C13.2378 9.86238 13.2378 7.13753 11.55 5.44983C9.86229 3.76208 7.13743 3.76208 5.44974 5.44983C4.4828 6.41677 4.06098 7.7528 4.21916 9.0186L2.17997 11.0579C2.02177 10.6536 1.89866 10.2492 1.81072 9.84486H0.544952C0.246106 9.82733 0 9.58121 0 9.26472H3.13758e-05ZM0.210955 15.7166L1.28334 16.789C1.51192 17.0176 1.86349 17.0176 2.09209 16.789L8.31545 10.5656L9.2999 11.5501C9.40537 11.6556 9.59875 11.6028 9.63396 11.4446L10.513 6.71559C10.5305 6.57493 10.425 6.46948 10.2844 6.48701L5.55534 7.36602C5.39714 7.40121 5.34441 7.57694 5.44987 7.70007L6.43433 8.68453L0.210968 14.9255C-0.0174891 15.154 -0.0174891 15.5056 0.210968 15.7167L0.210955 15.7166Z"
        />
    </g>
    <defs>
        <clipPath id="clip0_802_9440">
            <rect width="17" height="17" fill="white" />
        </clipPath>
    </defs>
</svg>
