<svg width="23" height="23" viewBox="0 0 23 23" fill="none" xmlns="http://www.w3.org/2000/svg">
    <path
        d="M13.796 1.04905e-06C15.9004 -0.00100363 17.9415 0.71966 19.5789 2.0418C21.2164 3.36394 22.3511 5.20763 22.794 7.26538C23.2368 9.32313 22.961 11.4705 22.0124 13.3495C21.0639 15.2284 19.5 16.7253 17.5816 17.5904C16.9684 18.9465 16.0355 20.1335 14.863 21.0497C13.6904 21.9659 12.3132 22.5839 10.8494 22.8508C9.3856 23.1177 7.87892 23.0255 6.45858 22.5821C5.03824 22.1386 3.74662 21.3572 2.6945 20.3048C1.64238 19.2525 0.86116 17.9605 0.417834 16.5399C-0.025493 15.1192 -0.117692 13.6121 0.149142 12.148C0.415976 10.6838 1.03388 9.30626 1.94986 8.13342C2.86584 6.96058 4.05257 6.02748 5.40826 5.41412C6.13749 3.80023 7.3167 2.43101 8.80446 1.47069C10.2922 0.510372 12.0253 -0.000272678 13.796 1.04905e-06ZM9.19619 6.90137C8.29011 6.90137 7.3929 7.07988 6.55579 7.4267C5.71868 7.77353 4.95806 8.28188 4.31737 8.92273C3.67667 9.56358 3.16844 10.3244 2.8217 11.1617C2.47496 11.999 2.29649 12.8964 2.29649 13.8027C2.29649 14.709 2.47496 15.6065 2.8217 16.4438C3.16844 17.2811 3.67667 18.0419 4.31737 18.6827C4.95806 19.3236 5.71868 19.8319 6.55579 20.1788C7.3929 20.5256 8.29011 20.7041 9.19619 20.7041C11.0261 20.7041 12.7811 19.977 14.075 18.6827C15.369 17.3885 16.0959 15.6331 16.0959 13.8027C16.0959 11.9724 15.369 10.217 14.075 8.92273C12.7811 7.62848 11.0261 6.90137 9.19619 6.90137ZM10.3461 8.0516V9.20183H12.646V11.5023H8.04624C7.90256 11.502 7.76399 11.5556 7.65781 11.6524C7.55163 11.7492 7.48554 11.8823 7.47256 12.0254C7.45958 12.1686 7.50064 12.3114 7.58766 12.4257C7.67469 12.5401 7.80136 12.6177 7.94275 12.6433L8.04624 12.6525H10.3461C11.1086 12.6525 11.8398 12.9555 12.379 13.4947C12.9181 14.034 13.221 14.7654 13.221 15.5281C13.221 16.2907 12.9181 17.0221 12.379 17.5614C11.8398 18.1007 11.1086 18.4036 10.3461 18.4036V19.5539H8.04624V18.4036H5.74634V16.1032H10.3461C10.4898 16.1035 10.6284 16.0499 10.7346 15.9531C10.8408 15.8563 10.9068 15.7232 10.9198 15.58C10.9328 15.4369 10.8917 15.2941 10.8047 15.1798C10.7177 15.0654 10.591 14.9878 10.4496 14.9622L10.3461 14.953H8.04624C7.28378 14.953 6.55254 14.65 6.0134 14.1107C5.47425 13.5715 5.17137 12.84 5.17137 12.0774C5.17137 11.3147 5.47425 10.5833 6.0134 10.0441C6.55254 9.50479 7.28378 9.20183 8.04624 9.20183V8.0516H10.3461ZM13.796 2.30046C12.8216 2.29932 11.8581 2.50513 10.9692 2.90428C10.0803 3.30343 9.28627 3.88683 8.63962 4.61587C9.93936 4.53694 11.2411 4.73491 12.4586 5.19667C13.6762 5.65843 14.7819 6.37347 15.7025 7.29449C16.6232 8.21552 17.338 9.32156 17.7995 10.5395C18.261 11.7574 18.4587 13.0594 18.3797 14.3594C19.4252 13.4296 20.1635 12.2039 20.4965 10.8447C20.8296 9.48556 20.7417 8.05725 20.2445 6.74922C19.7473 5.44119 18.8643 4.31524 17.7126 3.52071C16.561 2.72619 15.195 2.30062 13.796 2.30046Z"
        fill="currentColor" />
</svg>