<svg width="46" height="46" viewBox="0 0 46 46" fill="none" xmlns="http://www.w3.org/2000/svg">
    <g opacity="0.3" clip-path="url(#clip0_3_14285)">
        <path
            d="M40.2497 28.75V34.5H45.9997V38.3333H40.2497V44.0833H36.4163V38.3333H30.6663V34.5H36.4163V28.75H40.2497ZM40.265 5.75C41.3153 5.75 42.1663 6.60292 42.1663 7.65325V25.5722C40.9351 25.1373 39.6388 24.9156 38.333 24.9167V9.58333H7.66634L7.66826 36.4167L25.4779 18.6051C25.8075 18.2744 26.2465 18.0756 26.7125 18.0459C27.1784 18.0163 27.6391 18.1579 28.0079 18.4441L28.1862 18.607L34.9827 25.4112C33.4966 25.864 32.1176 26.6131 30.9288 27.6133C29.7401 28.6136 28.7662 29.8442 28.0659 31.2309C27.3656 32.6177 26.9534 34.132 26.8542 35.6824C26.755 37.2327 26.9707 38.7872 27.4885 40.2519L5.73434 40.25C5.2299 40.2495 4.74629 40.0487 4.38978 39.6919C4.03327 39.335 3.83301 38.8512 3.83301 38.3467V7.65325C3.83652 7.14989 4.0379 6.66812 4.39366 6.312C4.74942 5.95588 5.23099 5.75401 5.73434 5.75H40.265ZM15.333 13.4167C16.3497 13.4167 17.3247 13.8205 18.0436 14.5394C18.7625 15.2583 19.1663 16.2333 19.1663 17.25C19.1663 18.2667 18.7625 19.2417 18.0436 19.9606C17.3247 20.6795 16.3497 21.0833 15.333 21.0833C14.3163 21.0833 13.3413 20.6795 12.6224 19.9606C11.9035 19.2417 11.4997 18.2667 11.4997 17.25C11.4997 16.2333 11.9035 15.2583 12.6224 14.5394C13.3413 13.8205 14.3163 13.4167 15.333 13.4167Z"
            fill="#3B82F6" />
    </g>
    <defs>
        <clipPath id="clip0_3_14285">
            <rect width="46" height="46" fill="white" />
        </clipPath>
    </defs>
</svg>