<svg width="20" height="19" viewBox="0 0 20 19" fill="none" xmlns="http://www.w3.org/2000/svg">
    <path
        d="M19.9513 15.4324C19.9189 15.5774 19.8649 15.7162 19.7912 15.844C19.2249 16.7967 18.5329 17.6642 17.7354 18.4219C17.4971 18.6183 17.2466 18.7984 16.9854 18.961L16.3854 19C16.0954 18.961 15.7994 18.9259 15.5155 18.8724C14.2322 18.6016 13.0009 18.1151 11.8713 17.4323C9.93348 16.3214 8.19969 14.9264 6.53761 13.4226C5.01521 12.077 3.62283 10.5833 2.37992 8.96207C1.52588 7.81812 0.773945 6.61664 0.317927 5.23819C0.205906 4.89878 0.129877 4.54691 0.037945 4.20949L0 3.58206C0.254037 2.80235 0.766006 2.20163 1.30395 1.62343C1.7039 1.19964 2.11585 0.800543 2.5359 0.40343C2.88759 0.0689014 3.3753 -0.0691459 3.84389 0.0330256C4.11159 0.0742138 4.35294 0.22203 4.51586 0.444614C5.37576 1.6174 6.22576 2.7982 7.11579 3.94214H7.11566C7.29896 4.16746 7.41684 4.44143 7.45576 4.73248C7.49468 5.02366 7.45311 5.32016 7.33565 5.58809C7.22768 5.88229 7.08566 6.16416 6.95563 6.45018C6.80357 6.7814 6.65165 7.11479 6.48565 7.43986L6.48579 7.43971C6.41283 7.53945 6.42859 7.68053 6.52178 7.76061C7.12179 8.39219 7.69373 9.05265 8.32164 9.65958V9.65972C9.47702 10.817 10.727 11.8702 12.0576 12.8075C12.1753 12.914 12.3518 12.914 12.4695 12.8075C12.9555 12.4681 13.4495 12.1389 13.9495 11.8179C14.298 11.5647 14.7264 11.4559 15.1494 11.5133C15.2786 11.5348 15.4031 11.5795 15.5174 11.6451C16.84 12.42 18.16 13.199 19.4772 13.9823C19.9013 14.2291 20.0993 14.8464 19.9513 15.4326L19.9513 15.4324Z"
        fill="#3B82F6" />
</svg>