<svg width="23" height="21" viewBox="0 0 23 21" fill="none" xmlns="http://www.w3.org/2000/svg">
    <path
        d="M21.7849 6.29205L18.9265 1.0002L4.19493 1.08775L4.08337 1.39645L1.21614 6.29097C0.886873 6.85297 0.938436 7.59533 1.3392 8.09404L10.5071 19.5057C10.7604 19.8209 11.1222 20 11.4994 20C11.8766 20 12.2386 19.821 12.4919 19.5058L21.6608 8.09342C22.0611 7.5953 22.1131 6.85373 21.7849 6.29205ZM12.6778 2.17727H16.9753L14.8272 5.86015L12.6778 2.17727ZM13.6283 6.46119H9.37064L11.4994 2.81358L13.6283 6.46119ZM6.03624 2.17737H10.3211L8.17831 5.84897L6.03624 2.17737ZM2.66785 6.46119L4.83135 2.76797L6.986 6.46119H2.66785ZM7.69448 7.91507L10.2081 16.9612L2.94058 7.91507H7.69448ZM11.4994 16.7207L9.05262 7.91507H13.9463L11.4994 16.7207ZM15.3045 7.91513H20.0589L12.7907 16.9616L15.3045 7.91513ZM16.0261 6.46119L18.1784 2.77112L20.3336 6.46119H16.0261Z"
        fill="currentColor" />
    <path
        d="M10.5071 19.5057L1.3392 8.09404C0.938436 7.59533 0.886873 6.85297 1.21614 6.29097L4.08337 1.39645L4.19493 1.08775L18.9265 1.0002L21.7849 6.29205C22.1131 6.85373 22.0611 7.5953 21.6608 8.09342L12.4919 19.5058C12.2386 19.821 11.8766 20 11.4994 20C11.1222 20 10.7604 19.8209 10.5071 19.5057ZM10.5071 19.5057L10.6056 19.3976M12.6778 2.17727H16.9753L14.8272 5.86015L12.6778 2.17727ZM13.6283 6.46119H9.37064L11.4994 2.81358L13.6283 6.46119ZM6.03624 2.17737H10.3211L8.17831 5.84897L6.03624 2.17737ZM2.66785 6.46119L4.83135 2.76797L6.986 6.46119H2.66785ZM7.69448 7.91507L10.2081 16.9612L2.94058 7.91507H7.69448ZM11.4994 16.7207L9.05262 7.91507H13.9463L11.4994 16.7207ZM15.3045 7.91513H20.0589L12.7907 16.9616L15.3045 7.91513ZM16.0261 6.46119L18.1784 2.77112L20.3336 6.46119H16.0261Z"
        stroke="currentColor" stroke-width="0.3" />
</svg>