<svg width="17" height="17" viewBox="0 0 17 17" xmlns="http://www.w3.org/2000/svg">
    <path d="M8.5 0C6.0187 0 4 2.01081 4 4.48242C4 6.95403 6.0187 8.96484 8.5 8.96484C10.9813 8.96484 13 6.95403 13 4.48242C13 2.01081 10.9813 0 8.5 0Z"
    />
    <path d="M14.0989 11.8932C12.8669 10.6471 11.2336 9.96094 9.5 9.96094H7.5C5.7664 9.96094 4.13313 10.6471 2.90113 11.8932C1.67517 13.1331 1 14.7698 1 16.502C1 16.777 1.22387 17 1.5 17H15.5C15.7761 17 16 16.777 16 16.502C16 14.7698 15.3248 13.1331 14.0989 11.8932Z"
    />
</svg>
