<svg width="17" height="17" viewBox="0 0 17 17" xmlns="http://www.w3.org/2000/svg" class="main-nav__prepend">
    <path
            d="M9.93486 5.48622C9.93486 6.63854 8.97002 7.5727 7.77984 7.5727C6.58967 7.5727 5.625 6.63854 5.625 5.48622C5.625 4.3339 6.58967 3.3999 7.77984 3.3999C8.97002 3.3999 9.93486 4.3339 9.93486 5.48622Z"
    />
    <path
            d="M14.7239 11.5137C14.7239 12.666 13.7591 13.6 12.5689 13.6C11.3787 13.6 10.4141 12.666 10.4141 11.5137C10.4141 10.3614 11.3787 9.42725 12.5689 9.42725C13.7591 9.42725 14.7239 10.3614 14.7239 11.5137Z"
    />
    <path
            d="M0 5.48626C0 6.13536 0.526761 6.64537 1.19718 6.64537H5.17187C5.00419 6.2977 4.90848 5.90345 4.90848 5.48626C4.90848 5.06906 5.00419 4.6748 5.17187 4.32715H1.19718C0.550662 4.32715 0 4.83716 0 5.48626Z"
    />
    <path
            d="M15.8019 4.32715H10.3906C10.5583 4.67482 10.654 5.06906 10.654 5.48626C10.654 5.90345 10.5583 6.29772 10.3906 6.64537H15.8019C16.4723 6.64537 16.9991 6.13536 16.9991 5.48626C16.9992 4.83716 16.4486 4.32715 15.8021 4.32715H15.8019Z"
    />
    <path
            d="M1.19718 12.3182H9.96056C9.79288 11.9706 9.69718 11.5763 9.69718 11.1591C9.69718 10.7419 9.79288 10.3477 9.96056 10H1.19718C0.526761 10 0 10.51 0 11.1591C0 11.8082 0.550662 12.3182 1.19718 12.3182Z"
    />
    <path
            d="M16.9994 11.5136C16.9994 10.8645 16.4726 10.3545 15.8022 10.3545H15.1797C15.3474 10.7022 15.4431 11.0964 15.4431 11.5136C15.4431 11.9308 15.3474 12.3251 15.1797 12.6727H15.8022C16.4487 12.6727 16.9994 12.1627 16.9994 11.5136Z"
    />
</svg>
