<svg width="23" height="23" viewBox="0 0 23 23" xmlns="http://www.w3.org/2000/svg">
    <g clip-path="url(#clip0_2_36904)">
        <path
            d="M3.98245 2.79796C6.06919 0.989771 8.73883 -0.00384084 11.5 1.11581e-05C17.8514 1.11581e-05 23 5.14856 23 11.5C23 13.9564 22.2295 16.2334 20.9185 18.101L17.25 11.5H20.7C20.7001 9.69638 20.1701 7.93249 19.1759 6.42766C18.1816 4.92283 16.7669 3.74344 15.1078 3.03615C13.4486 2.32886 11.6181 2.12487 9.84395 2.44953C8.06978 2.7742 6.43017 3.6132 5.129 4.86221L3.98245 2.79796ZM19.0175 20.2021C16.9308 22.0103 14.2612 23.0039 11.5 23C5.14855 23 0 17.8515 0 11.5C0 9.04361 0.7705 6.76661 2.0815 4.89901L5.75 11.5H2.3C2.29985 13.3036 2.82986 15.0675 3.82414 16.5724C4.81841 18.0772 6.23308 19.2566 7.89224 19.9639C9.55141 20.6712 11.3819 20.8752 13.156 20.5505C14.9302 20.2258 16.5698 19.3868 17.871 18.1378L19.0175 20.2021Z" />
    </g>
    <defs>
        <clipPath id="clip0_2_36904">
            <rect width="23" height="23" />
        </clipPath>
    </defs>
</svg>