<svg width="22" height="22" viewBox="0 0 22 22" fill="none" xmlns="http://www.w3.org/2000/svg">
    <g clip-path="url(#clip0_969_2676)">
        <path
                fill-rule="evenodd"
                clip-rule="evenodd"
                d="M9.84331 1.15804C5.04657 1.15804 1.15804 5.04657 1.15804 9.84331C1.15804 14.6401 5.04657 18.5286 9.84331 18.5286C14.6401 18.5286 18.5286 14.6401 18.5286 9.84331C18.5286 5.04657 14.6401 1.15804 9.84331 1.15804ZM0 9.84331C0 4.407 4.407 0 9.84331 0C15.2796 0 19.6866 4.407 19.6866 9.84331C19.6866 15.2796 15.2796 19.6866 9.84331 19.6866C4.407 19.6866 0 15.2796 0 9.84331Z"
                fill="white"
        />
        <path
                fill-rule="evenodd"
                clip-rule="evenodd"
                d="M15.9743 15.9743C16.2004 15.7482 16.567 15.7482 16.7931 15.9743L21.8306 21.0117C22.0567 21.2379 22.0567 21.6045 21.8306 21.8306C21.6045 22.0567 21.2379 22.0567 21.0117 21.8306L15.9743 16.7931C15.7482 16.567 15.7482 16.2004 15.9743 15.9743Z"
                fill="white"
        />
    </g>
    <defs>
        <clipPath id="clip0_969_2676">
            <rect width="22" height="22" rx="5" fill="white" />
        </clipPath>
    </defs>
</svg>
