<svg width="23" height="23" viewBox="0 0 23 23" fill="none" xmlns="http://www.w3.org/2000/svg">
    <path
        d="M11.5 0C17.8514 0 23 5.14855 23 11.5C23 17.8514 17.8514 23 11.5 23C5.14855 23 0 17.8514 0 11.5C0 5.14855 5.14855 0 11.5 0ZM11.5 2.3C6.4193 2.3 2.3 6.4193 2.3 11.5C2.3 16.5807 6.4193 20.7 11.5 20.7C16.5807 20.7 20.7 16.5807 20.7 11.5C20.7 6.4193 16.5807 2.3 11.5 2.3ZM15.9079 6.13755C16.1805 5.94665 16.5508 5.97885 16.7854 6.2146C17.02 6.4492 17.0499 6.8195 16.8579 7.0886C14.3509 10.5915 12.9708 12.4683 12.7201 12.7201C12.0462 13.3929 10.9537 13.3929 10.2799 12.7201C9.6071 12.0462 9.6071 10.9537 10.2799 10.2799C10.7099 9.8509 12.5856 8.46975 15.9079 6.13755ZM17.825 10.35C18.4598 10.35 18.975 10.8652 18.975 11.5C18.975 12.1348 18.4598 12.65 17.825 12.65C17.1902 12.65 16.675 12.1348 16.675 11.5C16.675 10.8652 17.1902 10.35 17.825 10.35ZM5.175 10.35C5.8098 10.35 6.325 10.8652 6.325 11.5C6.325 12.1348 5.8098 12.65 5.175 12.65C4.5402 12.65 4.025 12.1348 4.025 11.5C4.025 10.8652 4.5402 10.35 5.175 10.35ZM7.8407 6.2146C8.2892 6.6631 8.2892 7.39105 7.8407 7.8407C7.3922 8.2892 6.6631 8.2892 6.2146 7.8407C5.7661 7.3922 5.7661 6.6631 6.2146 6.2146C6.6631 5.7661 7.39105 5.7661 7.8407 6.2146ZM11.5 4.025C12.1348 4.025 12.65 4.5402 12.65 5.175C12.65 5.8098 12.1348 6.325 11.5 6.325C10.8652 6.325 10.35 5.8098 10.35 5.175C10.35 4.5402 10.8652 4.025 11.5 4.025Z"
        fill="currentColor" />
</svg>