<svg width="20" height="20" viewBox="0 0 20 20" fill="none" xmlns="http://www.w3.org/2000/svg">
    <path d="M17.2128 10.6603C17.8762 11.2549 18.5764 11.8142 19.1715 12.4687C19.4343 12.7595 19.6831 13.0596 19.8735 13.3972C20.1433 13.877 19.899 14.405 19.4303 14.4336L16.5166 14.4324C15.7651 14.4896 15.1656 14.212 14.6616 13.7403C14.2582 13.3632 13.8846 12.9618 13.4967 12.5719C13.3377 12.4126 13.1712 12.2626 12.9724 12.1441C12.5746 11.9071 12.2294 11.9797 12.0021 12.3604C11.7706 12.7477 11.718 13.1766 11.6953 13.6082C11.6641 14.2379 11.4567 14.4035 10.7675 14.4323C9.2947 14.4961 7.89689 14.2916 6.59834 13.6096C5.45349 13.0084 4.56576 12.1596 3.79303 11.1987C2.28862 9.32771 1.13647 7.27174 0.101008 5.15818C-0.132077 4.682 0.038391 4.42639 0.610811 4.41732C1.56132 4.40036 2.5117 4.40158 3.46334 4.4161C3.84967 4.4213 4.10541 4.62467 4.25459 4.95966C4.76885 6.12031 5.3981 7.22455 6.18795 8.2481C6.3983 8.52059 6.61279 8.79312 6.91818 8.98491C7.25607 9.19727 7.51333 9.12689 7.67228 8.7814C7.77314 8.56233 7.81732 8.32637 7.84005 8.09177C7.91536 7.28458 7.92529 6.47874 7.79322 5.67438C7.71212 5.17238 7.40408 4.8474 6.85833 4.75242C6.57986 4.70398 6.6213 4.60886 6.75615 4.46296C6.99033 4.21134 7.2106 4.05469 7.6497 4.05469H10.9426C11.461 4.14859 11.5761 4.36236 11.6471 4.84112L11.6499 8.19844C11.6442 8.38377 11.7507 8.93381 12.1145 9.05647C12.4055 9.14382 12.5974 8.93005 12.7721 8.76064C13.5605 7.9926 14.1232 7.0849 14.6259 6.14501C14.849 5.73171 15.0408 5.30253 15.2267 4.87368C15.3644 4.55547 15.5806 4.39889 15.9711 4.40581L19.1403 4.40839C19.2343 4.40839 19.3294 4.40965 19.4204 4.42395C19.9544 4.5075 20.1008 4.71836 19.9358 5.19701C19.6759 5.94799 19.1703 6.57383 18.6758 7.20254C18.1473 7.87377 17.5821 8.52206 17.058 9.19727C16.5764 9.81397 16.6146 10.1248 17.2128 10.6603Z" fill="#436EAB"/>
</svg>
