<svg width="193" height="33" viewBox="0 0 193 33" fill="none" xmlns="http://www.w3.org/2000/svg">
    <path fill-rule="evenodd" clip-rule="evenodd" d="M21.7032 1.00545C21.8833 1.00545 22.0034 1.0777 22.0634 1.22221C22.1235 1.36673 22.1835 1.55459 22.2436 1.78581C22.3036 2.01703 22.3411 2.45779 22.3561 3.10809C22.3711 3.7584 22.2961 4.37257 22.131 4.95062C21.9659 5.52867 21.5832 6.14284 20.9828 6.79314C20.3824 7.44345 19.602 7.97091 18.6414 8.37555C17.6508 8.78018 16.435 8.98972 14.9941 9.00417C13.5533 9.01862 12.3675 8.93914 11.437 8.76573L9.99609 8.46225C9.99609 8.66457 9.98859 9.40157 9.97358 10.6733C9.95857 11.945 9.95107 13.0288 9.95107 13.9248H17.2905L17.5157 14.0115C17.5457 14.0404 17.5607 14.0982 17.5607 14.1849V18.7804C17.5607 18.8382 17.5307 18.8888 17.4706 18.9321C17.4106 18.9755 17.3506 18.9972 17.2905 18.9972H9.90604V22.8556C9.93606 24.1273 10.0786 25.1895 10.3338 26.0421C10.589 26.8947 10.8741 27.4872 11.1893 27.8196C11.5045 28.152 11.8047 28.3976 12.0899 28.5566C12.375 28.7156 12.6002 28.8529 12.7653 28.9685C12.9304 29.0841 12.9679 29.243 12.8778 29.4454C12.5777 30.2835 11.8197 31.0783 10.604 31.8298C9.38822 32.5813 8.13496 32.957 6.84417 32.957C4.86295 32.957 3.22697 32.3284 1.93618 31.0711C0.645387 29.8139 0 27.9135 0 25.3701L0.0450274 1.22221C0.0750459 1.1066 0.150091 1.03435 0.270165 1.00545H21.7032ZM43.4065 21.2082C43.4065 24.532 42.2207 27.3283 39.8493 29.5971C37.4778 31.8659 34.461 33.0004 30.7988 33.0004C27.1966 33.0004 24.1948 31.8587 21.7933 29.5754C19.3918 27.2921 18.1911 24.5031 18.1911 21.2082C18.1911 17.9133 19.3918 15.1243 21.7933 12.841C24.1948 10.5577 27.1966 9.41603 30.7988 9.41603C34.401 9.41603 37.4028 10.5577 39.8043 12.841C42.2057 15.1243 43.4065 17.9133 43.4065 21.2082ZM27.0615 21.2082C27.0615 23.1736 27.3767 24.8138 28.0071 26.1288C28.6375 27.4439 29.568 28.1014 30.7988 28.1014C32.0896 28.1014 33.0351 27.4656 33.6355 26.1938C34.2359 24.9221 34.5361 23.2603 34.5361 21.2082C34.5361 19.2139 34.2209 17.5665 33.5905 16.2659C32.9601 14.9653 32.0295 14.315 30.7988 14.315C29.538 14.315 28.5999 14.958 27.9846 16.2442C27.3692 17.5304 27.0615 19.185 27.0615 21.2082ZM69.5224 21.2082C69.5224 24.532 68.3367 27.3283 65.9652 29.5971C63.5938 31.8659 60.5769 33.0004 56.9147 33.0004C53.3125 33.0004 50.3107 31.8587 47.9092 29.5754C45.5077 27.2921 44.307 24.5031 44.307 21.2082C44.307 17.9133 45.5077 15.1243 47.9092 12.841C50.3107 10.5577 53.3125 9.41603 56.9147 9.41603C60.5169 9.41603 63.5187 10.5577 65.9202 12.841C68.3217 15.1243 69.5224 17.9133 69.5224 21.2082ZM53.1774 21.2082C53.1774 23.1736 53.4926 24.8138 54.123 26.1288C54.7534 27.4439 55.6839 28.1014 56.9147 28.1014C58.2055 28.1014 59.1511 27.4656 59.7514 26.1938C60.3518 24.9221 60.652 23.2603 60.652 21.2082C60.652 19.2139 60.3368 17.5665 59.7064 16.2659C59.076 14.9653 58.1455 14.315 56.9147 14.315C55.6539 14.315 54.7159 14.958 54.1005 16.2442C53.4851 17.5304 53.1774 19.185 53.1774 21.2082ZM95.7734 23.2458C95.7734 24.5175 95.8709 25.5797 96.0661 26.4323C96.2612 27.2849 96.4788 27.8774 96.719 28.2098C96.9591 28.5422 97.2068 28.7951 97.4619 28.9685C97.7171 29.1419 97.9047 29.2792 98.0248 29.3803C98.1448 29.4815 98.1598 29.6332 98.0698 29.8355C97.8296 30.587 97.1692 31.2879 96.0886 31.9382C95.0079 32.5885 93.8672 32.9136 92.6665 32.9136C91.1055 32.9136 89.7697 32.4729 88.659 31.5914C87.5484 30.7098 86.8429 29.5032 86.5428 27.9713C84.7717 31.2662 82.4002 32.9136 79.4284 32.9136C77.6273 32.9136 76.0364 32.3212 74.6555 31.1361C73.2747 29.9511 72.254 28.4771 71.5936 26.7141C70.9332 24.951 70.603 23.0724 70.603 21.0781C70.603 17.8989 71.406 15.1459 73.012 12.8193C74.618 10.4926 76.8318 9.32932 79.6536 9.32932C82.5353 9.32932 84.7717 10.7022 86.3626 13.4479V1.0488C86.3927 0.933189 86.4677 0.860934 86.5878 0.832031H95.5933C95.7133 0.832031 95.7734 0.889835 95.7734 1.00545V23.2458ZM83.2557 26.9309C84.3064 26.9309 85.1319 26.3817 85.7323 25.2834C86.3326 24.1851 86.6328 22.7834 86.6328 21.0781C86.6328 19.3729 86.3326 17.9639 85.7323 16.8512C85.1319 15.7384 84.3064 15.182 83.2557 15.182C82.1751 15.182 81.3346 15.7384 80.7342 16.8512C80.1338 17.9639 79.8337 19.3729 79.8337 21.0781C79.8337 22.7545 80.1338 24.149 80.7342 25.2617C81.3346 26.3745 82.1751 26.9309 83.2557 26.9309Z" fill="#05082F"/>
    <path fill-rule="evenodd" clip-rule="evenodd" d="M115.969 14.358C122.573 16.2944 125.875 19.3292 125.875 23.4622C125.875 25.1675 125.417 26.6632 124.501 27.9493C123.586 29.2355 122.378 30.2254 120.877 30.919C119.376 31.6127 117.8 32.1257 116.149 32.4581C114.498 32.7905 112.787 32.9566 111.016 32.9566C109.605 32.9566 108.201 32.841 106.806 32.6098C105.41 32.3786 104.021 32.0029 102.641 31.4826C101.26 30.9624 100.119 30.1892 99.2185 29.1632C98.3179 28.1372 97.8076 26.9305 97.6875 25.5432C97.5975 24.2715 98.0252 23.1299 98.9708 22.1183C99.9164 21.1067 101.14 20.6009 102.641 20.6009C103.511 20.6009 104.427 20.7454 105.387 21.0344C106.348 21.3235 106.918 21.5836 107.098 21.8148C107.158 21.9882 107.181 22.1472 107.166 22.2917C107.151 22.4362 107.113 22.6963 107.053 23.072C106.993 23.4478 106.963 23.7801 106.963 24.0692C106.993 26.0345 107.849 27.3496 109.53 28.0143C110.971 28.5635 112.321 28.4479 113.582 27.6675C114.663 27.0028 115.218 26.0201 115.248 24.7195C115.248 24.2281 115.121 23.7657 114.865 23.3322C114.61 22.8986 114.31 22.5301 113.965 22.2266C113.62 21.9232 113.117 21.598 112.457 21.2512C111.796 20.9044 111.211 20.6298 110.7 20.4275C110.19 20.2252 109.492 19.9506 108.607 19.6038C107.721 19.2569 107.038 18.9824 106.558 18.78C103.916 17.6528 102.145 16.7713 101.245 16.1355C99.1734 14.6614 98.0778 12.7106 97.9577 10.2827C97.8676 8.34628 98.4755 6.58326 99.7813 4.99362C101.087 3.40398 102.738 2.19009 104.734 1.35192C106.731 0.51375 108.794 0.065768 110.926 0.00796303C114.678 -0.0787445 117.807 0.54265 120.314 1.87216C122.82 3.20168 124.074 5.12367 124.074 7.63818C124.104 9.17002 123.691 10.3767 122.835 11.2582C121.98 12.1397 120.682 12.5805 118.94 12.5805C118.01 12.5805 117.169 12.4649 116.419 12.2337C115.668 12.0024 115.233 11.7712 115.113 11.54C115.083 11.3377 115.076 11.1426 115.091 10.9547C115.106 10.7669 115.143 10.42 115.203 9.91424C115.263 9.40845 115.293 9.01105 115.293 8.72202C115.353 7.82605 115.151 7.06737 114.685 6.44596C114.22 5.82456 113.642 5.42716 112.952 5.25374C112.261 5.08033 111.556 5.03697 110.836 5.12368C110.115 5.21039 109.485 5.52831 108.944 6.07746C108.404 6.6266 108.104 7.3058 108.044 8.11507C108.044 10.7452 110.685 12.8261 115.969 14.358ZM151.765 21.2078C151.765 24.5316 150.58 27.3279 148.208 29.5967C145.837 31.8656 142.82 33 139.158 33C135.556 33 132.554 31.8584 130.152 29.5751C127.751 27.2918 126.55 24.5027 126.55 21.2078C126.55 17.913 127.751 15.1239 130.152 12.8406C132.554 10.5573 135.556 9.41568 139.158 9.41568C142.76 9.41568 145.762 10.5573 148.163 12.8406C150.565 15.1239 151.765 17.913 151.765 21.2078ZM135.421 21.2078C135.421 23.1732 135.736 24.8134 136.366 26.1285C136.996 27.4435 137.927 28.101 139.158 28.101C140.449 28.101 141.394 27.4652 141.995 26.1935C142.595 24.9218 142.895 23.2599 142.895 21.2078C142.895 19.2136 142.58 17.5661 141.95 16.2655C141.319 14.9649 140.389 14.3146 139.158 14.3146C137.897 14.3146 136.959 14.9577 136.344 16.2439C135.728 17.53 135.421 19.1847 135.421 21.2078ZM176.711 23.2888C176.711 24.8495 176.868 26.0996 177.183 27.0389C177.499 27.9782 177.836 28.549 178.197 28.7514C178.557 28.9537 178.865 29.1343 179.12 29.2933C179.375 29.4522 179.457 29.6473 179.367 29.8785C179.097 30.63 178.422 31.3309 177.341 31.9812C176.26 32.6315 175.12 32.9566 173.919 32.9566C172.358 32.9566 171.022 32.5159 169.912 31.6344C168.801 30.7528 168.095 29.5317 167.795 27.971C166.925 29.6762 165.829 30.9335 164.508 31.7427C163.187 32.552 161.852 32.9566 160.501 32.9566C158.79 32.9566 157.334 32.2919 156.133 30.9624C154.932 29.6329 154.332 27.9132 154.332 25.8033V19.0402C154.332 17.7685 154.212 16.7063 153.972 15.8537C153.732 15.0011 153.454 14.4086 153.139 14.0762C152.824 13.7438 152.508 13.4909 152.193 13.3175C151.878 13.1441 151.638 13.0068 151.473 12.9056C151.308 12.8045 151.255 12.6527 151.315 12.4504C151.585 11.699 152.261 10.9981 153.341 10.3478C154.422 9.69747 155.563 9.37232 156.764 9.37232C158.655 9.37232 160.238 9.97204 161.514 11.1715C162.79 12.3709 163.428 13.9678 163.428 15.9621V24.3726C163.428 25.9334 163.878 26.7715 164.778 26.8872C165.559 27.0028 166.264 26.497 166.895 25.3698C167.375 24.5316 167.63 23.5345 167.66 22.3784V10.4562L167.84 10.196H176.891C177.011 10.2249 177.071 10.2972 177.071 10.4128C176.831 17.0026 176.711 21.2945 176.711 23.2888ZM180.853 1.04845C180.883 0.932838 180.958 0.860583 181.078 0.83168H190.084L190.264 0.961741V1.04845C190.294 13.8812 190.309 21.2945 190.309 23.2888C190.309 24.8495 190.467 26.0996 190.782 27.0389C191.097 27.9782 191.435 28.549 191.795 28.7514C192.155 28.9537 192.463 29.1343 192.718 29.2933C192.973 29.4522 193.056 29.6473 192.966 29.8785C192.695 30.6011 191.967 31.2948 190.782 31.9595C189.596 32.6243 188.388 32.9566 187.157 32.9566C185.296 32.9566 183.78 32.3569 182.609 31.1575C181.439 29.958 180.853 28.3612 180.853 26.3669V1.04845Z" fill="#E74D3D"/>
</svg>
