<svg width="163px" height="111px" viewBox="0 0 163 111" version="1.1" xmlns="http://www.w3.org/2000/svg"
    xmlns:xlink="http://www.w3.org/1999/xlink">
    <g id="Page-1" stroke="none" stroke-width="1" fill="none" fill-rule="evenodd">
        <g id="logofinished2" fill-rule="nonzero">
            <path
                d="M69.728,1.168 C70.304003,1.168 70.687999,1.41449233 70.88,1.9074844 C71.072001,2.40047646 71.263999,3.04135657 71.456,3.83014383 C71.648001,4.61893109 71.768,6.12253436 71.816,8.34099864 C71.864,10.5594629 71.624003,12.6546478 71.096,14.626616 C70.567997,16.5985843 69.34401,18.6937691 67.424,20.9122334 C65.50399,23.1306977 63.008015,24.9300917 59.936,26.3104695 C56.767984,27.6908472 52.880023,28.4056751 48.272,28.4549742 C43.663977,28.5042734 39.872015,28.2331319 36.896,27.6415414 L32.288,26.6062632 C32.288,27.2964522 32.264,29.8106739 32.216,34.1490041 C32.168,38.4873342 32.144,42.1847192 32.144,45.24127 L55.616,45.24127 L56.336,45.5370638 C56.432,45.6356622 56.48,45.8328561 56.48,46.1286513 L56.48,61.8057205 C56.48,62.0029174 56.384001,62.175462 56.192,62.3233596 C55.999999,62.4712572 55.808001,62.5452049 55.616,62.5452049 L32,62.5452049 L32,75.7080271 C32.096,80.0463572 32.551996,83.6697948 33.368,86.5784478 C34.184004,89.4871008 35.095995,91.5083376 36.104,92.6422198 C37.112005,93.776102 38.071995,94.6141751 38.984,95.1564668 C39.896005,95.6987584 40.615997,96.1670934 41.144,96.5614871 C41.672003,96.9558808 41.792001,97.4981643 41.504,98.1883528 C40.543995,101.047707 38.120019,103.759123 34.232,106.322681 C30.343981,108.886239 26.3360206,110.168 22.208,110.168 C15.8719683,110.168 10.6400206,108.023517 6.512,103.734486 C2.3839794,99.4454547 0.32,92.9627062 0.32,84.2860461 L0.464,1.9074844 C0.5600005,1.51309077 0.7999981,1.26659843 1.184,1.168 L69.728,1.168 Z"
                id="FS" fill="#3E3534"></path>
            <path
                d="M131.216,48.392 C152.336106,54.8240322 162.896,64.9039314 162.896,78.632 C162.896,84.296028 161.432015,89.263979 158.504,93.536 C155.575985,97.808021 151.712024,101.095988 146.912,103.4 C142.111976,105.704012 137.072026,107.407994 131.792,108.512 C126.511974,109.616006 121.040028,110.168 115.376,110.168 C110.863977,110.168 106.376022,109.784004 101.912,109.016 C97.447978,108.247996 93.008022,107.000009 88.592,105.272 C84.175978,103.543991 80.528014,100.976017 77.648,97.568 C74.767986,94.159983 73.136002,90.152023 72.752,85.544 C72.463999,81.319979 73.831985,77.528017 76.856,74.168 C79.880015,70.8079832 83.791976,69.128 88.592,69.128 C91.376014,69.128 94.303985,69.6079952 97.376,70.568 C100.448015,71.5280048 102.271997,72.3919962 102.848,73.16 C103.040001,73.736003 103.112,74.263998 103.064,74.744 C103.016,75.224002 102.896001,76.087994 102.704,77.336 C102.511999,78.584006 102.416,79.687995 102.416,80.648 C102.512,87.176033 105.247973,91.543989 110.624,93.752 C115.232023,95.576009 119.55198,95.192013 123.584,92.6 C127.040017,90.391989 128.816,87.128022 128.912,82.808 C128.912,81.175992 128.504004,79.640007 127.688,78.2 C126.871996,76.759993 125.912006,75.536005 124.808,74.528 C123.703994,73.519995 122.096011,72.4400058 119.984,71.288 C117.871989,70.1359942 116.000008,69.2240034 114.368,68.552 C112.735992,67.8799966 110.504014,66.9680058 107.672,65.816 C104.839986,64.6639942 102.656008,63.7520034 101.12,63.08 C92.671958,59.3359813 87.008014,56.4080106 84.128,54.296 C77.503967,49.3999755 74.000002,42.9200403 73.616,34.856 C73.327999,28.4239678 75.271979,22.5680264 79.448,17.288 C83.624021,12.0079736 88.903968,7.9760139 95.288,5.192 C101.672032,2.4079861 108.271966,0.920001 115.088,0.728 C127.08806,0.4399986 137.09596,2.5039779 145.112,6.92 C153.12804,11.3360221 157.136,17.7199582 157.136,26.072 C157.232,31.1600254 155.912014,35.1679854 153.176,38.096 C150.439986,41.0240146 146.288028,42.488 140.72,42.488 C137.743985,42.488 135.056012,42.1040038 132.656,41.336 C130.255988,40.5679962 128.864002,39.8000038 128.48,39.032 C128.384,38.3599966 128.36,37.7120031 128.408,37.088 C128.456,36.4639969 128.575999,35.3120084 128.768,33.632 C128.960001,31.9519916 129.056,30.6320048 129.056,29.672 C129.248001,26.6959851 128.600007,24.1760103 127.112,22.112 C125.623993,20.0479897 123.776011,18.7280029 121.568,18.152 C119.359989,17.5759971 117.104012,17.4319986 114.8,17.72 C112.495988,18.0080014 110.480009,19.0639909 108.752,20.888 C107.023991,22.7120091 106.064001,24.9679866 105.872,27.656 C105.872,36.3920437 114.319916,43.3039746 131.216,48.392 Z"
                id="Path" fill="#E74D3D"></path>
        </g>
    </g>
</svg>